PathFileType	4	(X/Y/Z)	D:\Long Term Storage\D'Arcy Smith\Coord15.trc
DataRate	CameraRate	NumFrames	NumMarkers	Units	OrigDataRate	OrigDataStartFrame	OrigNumFrames
120.00	120.00	      121	4	mm	120.00	1816	      4841
Frame#	Time	M1			M2			M3			M4			
		X1	Y1	Z1	X2	Y2	Z2	X3	Y3	Z3	X4	Y4	Z4	

1816	15.125	1080.35107	363.33655	169.62158	1675.99426	438.93295	164.80370							
1817	15.133	1081.93225	366.18951	166.20654	1677.48218	446.50934	158.14058							
1818	15.142	1082.56836	368.87445	161.25430	1679.00525	453.70822	152.15079							
1819	15.150	1082.97986	370.99188	157.19121	1680.40027	460.37753	146.67432							
1820	15.158	1083.73657	372.81097	154.11467	1682.15137	466.63577	142.05879							
1821	15.167	1084.30115	374.03922	151.85416	1683.30212	472.24548	137.58354							
1822	15.175	1084.79102	374.87506	150.24821	1684.51025	477.13693	134.20364							
1823	15.183	1085.12549	375.18082	149.27585	1686.03833	481.25696	131.07315							
1824	15.192	1085.42346	375.09134	148.87943	1687.38672	484.73077	128.80951							
1825	15.200	1085.51135	374.44458	149.18234	1688.89087	487.48099	126.99765							
1826	15.208	1085.64331	373.31021	150.06477	1690.55164	489.62967	126.21075							
1827	15.217	1085.59949	371.78049	151.62807	1691.95483	490.87268	125.63539							
1828	15.225	1085.55750	369.93106	153.76515	1693.59265	491.30716	125.82748							
1829	15.233	1085.76941	367.55057	156.78606	1694.53162	490.68500	125.96780							
1830	15.242	1085.60547	364.95230	160.09615	1696.17896	489.39569	127.52426							
1831	15.250	1084.64148	361.78561	163.53348	1697.82581	487.45444	129.38487							
1832	15.258	1084.26099	358.38782	167.69768	1698.73633	484.38986	131.22261							
1833	15.267	1083.79382	354.76813	172.47881	1700.36072	480.85812	134.39682							
1834	15.275	1083.22534	350.83710	177.69220	1701.39490	476.53854	137.46538							
1835	15.283	1082.60339	346.66977	183.21622	1703.05615	471.70715	141.57600							
1836	15.292	1081.97583	342.26379	189.29524	1704.05847	466.08847	145.61906							
1837	15.300	1081.28833	337.71368	195.90096	1705.20593	459.99466	150.55292							
1838	15.308	1080.43359	332.84241	203.02074	1706.37732	453.29306	156.02336							
1839	15.317	1079.93884	327.86328	211.04196	1707.24878	446.19748	161.96777							
1840	15.325	1078.77380	322.87381	218.57094	1708.13342	438.66302	168.51611							
1841	15.333	1077.68311	317.61520	227.06830	1708.90369	431.05823	175.48390							
1842	15.342	1076.70178	312.38412	236.04509	1709.99976	422.36823	183.77260							
1843	15.350	1075.56421	307.00659	245.43983	1710.89771	413.87173	192.45229							
1844	15.358	1074.43030	301.80777	255.36678	1711.83252	404.86392	201.71469							
1845	15.367	1073.38708	296.58472	265.62662	1712.27417	395.43100	211.68001							
1846	15.375	1072.24060	291.57715	276.33994	1712.73608	386.29037	222.37724							
1847	15.383	1071.57996	286.66595	287.99548	1713.08752	377.11209	233.71799							
1848	15.392	1070.22961	282.20255	299.05960	1713.39026	367.95270	245.82115							
1849	15.400	1069.46960	277.72131	311.47598	1713.14600	358.78168	258.64606							
1850	15.408	1068.04614	273.62411	322.81479	1713.14697	350.43954	272.06647							
1851	15.417	1067.37390	270.06815	337.09857	1712.95813	342.07593	286.32486							
1852	15.425	1065.80481	266.65598	349.49170	1712.70190	333.99539	301.10553							
1853	15.433	1065.12280	263.74512	363.37433	1712.33875	326.41354	316.54526							
1854	15.442	1064.26074	261.64163	376.08215	1711.77039	319.17358	332.31033							
1855	15.450	1063.42273	259.87793	390.13974	1711.03259	312.54214	348.63449							
1856	15.458	1061.66467	258.49115	402.26471	1710.23633	306.29129	365.17349							
1857	15.467	1060.76050	257.39951	417.33041	1709.28003	300.92438	382.01132							
1858	15.475	1060.11157	257.38400	430.14697	1708.22559	296.24487	399.13443							
1859	15.483	1059.01306	257.65173	442.52661	1706.93445	292.37543	416.35004							
1860	15.492	1058.57434	258.60706	455.53064	1705.34277	289.54871	433.64432							
1861	15.500	1057.59839	259.98145	468.28247	1703.73877	287.36304	450.82043							
1862	15.508	1056.47327	261.65768	478.82758	1701.93542	285.99609	467.84741							
1863	15.517	1055.76917	263.73270	490.40646	1700.04102	285.73138	484.66650							
1864	15.525	1055.02820	266.70859	502.19504	1697.79797	286.04028	501.04752							
1865	15.533	1054.19824	269.47205	511.30756	1695.65112	287.22339	517.03680							
1866	15.542	1053.23926	272.36331	520.78943	1693.22461	289.06219	532.43988							
1867	15.550	1052.76770	276.37268	529.87878	1690.80273	291.37616	547.07422							
1868	15.558	1051.74829	279.42456	538.20770	1688.34338	294.51886	561.11572							
1869	15.567	1050.38123	282.54071	545.27911	1685.62964	297.77689	574.29816							
1870	15.575	1049.35437	285.49750	552.41309	1683.07642	301.58340	586.41040							
1871	15.583	1048.61768	288.12512	559.59918	1680.19177	305.61972	597.59344							
1872	15.592	1047.07922	291.04700	564.45026	1677.56873	308.88586	607.91028							
1873	15.600	1046.50171	293.09882	570.02203	1675.10327	313.10178	616.72778							
1874	15.608	1044.67383	294.89792	573.28320	1672.52063	316.71329	624.80231							
1875	15.617	1043.59595	297.13599	577.28882	1670.08081	320.05795	631.72064							
1876	15.625	1042.65674	298.37616	581.83673	1667.62683	322.95157	637.54822							
1877	15.633	1041.21936	299.68808	583.77826	1665.32092	325.43521	642.21423							
1878	15.642	1039.38135	300.70386	583.15747	1663.05518	327.32639	645.63910							
1879	15.650	1037.87756	301.19040	583.88239	1660.92920	328.84201	648.12854							
1880	15.658	1036.46802	301.44739	583.68701	1659.07690	329.59067	649.54022							
1881	15.667	1035.51428	301.26480	584.97473	1657.10876	329.74393	649.84082							
1882	15.675	1033.67419	301.19122	581.57202	1655.41113	329.41910	649.18982							
1883	15.683	1032.77832	300.48013	582.24170	1653.88867	328.51840	647.53217							
1884	15.692	1030.93555	299.82846	577.41620	1652.37073	327.08441	644.88141							
1885	15.700	1030.07666	298.46765	576.61615	1651.05725	325.18311	641.35181							
1886	15.708	1028.29321	297.46555	571.14325	1649.90369	322.90729	636.87006							
1887	15.717	1027.72656	295.66333	566.66534	1648.82886	320.18445	631.51978							
1888	15.725	1026.51636	294.03802	561.21277	1647.82092	317.26877	625.22540							
1889	15.733	1025.88647	292.57080	556.65454	1647.04041	314.03040	618.16858							
1890	15.742	1024.68835	290.70044	549.95856	1646.51904	310.78268	610.16315							
1891	15.750	1024.03821	288.87561	543.66022	1645.88452	307.27200	601.31909							
1892	15.758	1023.53821	287.02032	536.93341	1645.50732	303.59506	591.70221							
1893	15.767	1023.10101	285.05997	529.55255	1645.25549	300.12466	581.38300							
1894	15.775	1023.14288	283.18723	521.97687	1645.05798	296.60007	570.33698							
1895	15.783	1023.38031	281.25403	514.69940	1645.02283	293.37793	558.62207							
1896	15.792	1023.38641	279.51541	506.44370	1645.03186	290.53580	546.36414							
1897	15.800	1023.98999	277.39359	498.49347	1645.23340	287.80896	533.55829							
1898	15.808	1024.08667	275.15356	489.09924	1645.63989	285.12714	520.13599							
1899	15.817	1024.94165	273.77277	480.53247	1646.01599	283.11459	506.36765							
1900	15.825	1025.89380	272.61774	469.94754	1646.67432	281.57767	492.18625							
1901	15.833	1026.95020	271.66605	460.02429	1647.23572	280.41769	477.71063							
1902	15.842	1028.43481	270.90506	449.76144	1647.84509	279.83459	462.88498							
1903	15.850	1029.86951	270.53445	439.24408	1648.58337	279.77014	447.81747							
1904	15.858	1031.62610	270.29266	428.73807	1649.44763	280.41223	432.70551							
1905	15.867	1033.59644	270.37006	418.24817	1650.25354	281.76724	417.45993							
1906	15.875	1035.59534	270.79187	407.43243	1651.19580	283.65210	402.17459							
1907	15.883	1037.77271	271.31012	396.28717	1652.26880	286.09543	386.96515							
1908	15.892	1040.21460	272.92209	385.09375	1653.17908	289.15753	371.82068							
1909	15.900	1042.85376	273.69147	374.39243	1654.18030	292.80768	356.88470							
1910	15.908	1045.31030	275.35895	363.75244	1655.33472	296.90506	342.13785							
1911	15.917	1048.02795	276.98645	352.65552	1656.43860	301.60147	327.71164							
1912	15.925	1050.69836	278.87482	341.83023	1657.41150	306.92111	313.32742							
1913	15.933	1053.53223	281.58005	330.02637	1658.78772	311.77103	299.82028							
1914	15.942	1056.82361	284.48236	318.33209	1659.98914	317.56635	286.43536							
1915	15.950	1059.66760	286.92990	307.97485	1661.21423	323.73715	273.31778							
1916	15.958	1062.61768	289.65286	297.48969	1662.31128	330.01563	260.51447							
1917	15.967	1065.45557	291.79514	288.39093	1663.21729	336.71973	248.28011							
1918	15.975	1068.30310	294.53522	278.93945	1664.35315	343.58670	236.41002							
1919	15.983	1071.05054	297.56070	270.58664	1665.34998	350.48022	224.89355							
1920	15.992	1073.71069	300.74762	261.30423	1666.37549	357.53348	214.04739							
1921	16.000	1076.45068	303.84775	252.66611	1667.28491	364.60110	203.65645							
1922	16.008	1079.55908	307.06277	245.05809	1668.16125	371.62360	193.88403							
1923	16.017	1081.28430	310.14026	237.17929	1669.01721	378.57101	184.86874							
1924	16.025	1083.49329	313.08240	230.03607	1669.82776	385.26627	176.42033							
1925	16.033	1085.48389	316.04630	223.38524	1670.63367	391.80051	168.57306							
1926	16.042	1087.35156	318.74954	217.25969	1671.35046	398.05667	161.50853							
1927	16.050	1088.98071	321.47238	211.54224	1672.10754	403.88043	155.06099							
1928	16.058	1090.53369	323.88309	206.28973	1672.88696	409.31546	149.32214							
1929	16.067	1091.72705	326.10501	201.63168	1673.56030	414.21878	144.28783							
1930	16.075	1092.75037	328.05527	197.60971	1674.21252	418.49692	140.05635							
1931	16.083	1093.55457	329.85889	193.95166	1674.98279	422.20123	136.35022							
1932	16.092	1094.18726	331.30893	190.85207	1675.51294	425.22144	133.58913							
1933	16.100	1094.64441	332.49835	188.17737	1676.22937	427.48013	131.43385							
1934	16.108	1094.75745	333.29684	186.10126	1676.97595	429.15576	129.87215							
1935	16.117	1094.81079	333.77408	184.43008	1677.54358	430.04993	129.21707							
1936	16.125	1094.53296	333.90036	183.41502	1678.06702	430.16379	129.17403							
